<svg width="212" height="66" viewBox="0 0 212 66" fill="none" xmlns="http://www.w3.org/2000/svg">
<rect y="14.3936" width="202" height="37" fill="white" fill-opacity="0.8"/>
<rect x="10" y="24.3936" width="202" height="37" fill="#49E1F8" fill-opacity="0.8"/>
<rect x="6" y="24.2339" width="202" height="41.8994" transform="rotate(-6.77797 6 24.2339)" fill="black" fill-opacity="0.8"/>
<path d="M41.5139 40.3936V28.8736C41.5139 28.3402 41.6406 27.8602 41.8939 27.4336C42.1606 26.9936 42.5072 26.6469 42.9339 26.3936C43.3739 26.1269 43.8606 25.9936 44.3939 25.9936H53.0139C53.5472 25.9936 54.0272 26.1269 54.4539 26.3936C54.8939 26.6469 55.2472 26.9936 55.5139 27.4336C55.7806 27.8602 55.9139 28.3402 55.9139 28.8736V40.3936H52.9939V35.6536H44.3939V40.3936H41.5139ZM44.3939 32.7736H52.9939V29.0136C52.9939 28.9736 52.9806 28.9469 52.9539 28.9336C52.9406 28.9069 52.9139 28.8936 52.8739 28.8936H44.5139C44.4739 28.8936 44.4406 28.9069 44.4139 28.9336C44.4006 28.9469 44.3939 28.9736 44.3939 29.0136V32.7736ZM58.3927 40.3936V25.9936H61.2527V40.3936H58.3927ZM70.5786 40.3936V25.9936H73.6386L82.0586 36.0336V25.9936H84.9786V40.3936H81.9186L73.4586 30.3136V40.3936H70.5786ZM90.6592 40.3936C90.1259 40.3936 89.6392 40.2669 89.1992 40.0136C88.7726 39.7469 88.4259 39.4002 88.1592 38.9736C87.9059 38.5336 87.7792 38.0469 87.7792 37.5136V28.8736C87.7792 28.3402 87.9059 27.8602 88.1592 27.4336C88.4259 26.9936 88.7726 26.6469 89.1992 26.3936C89.6392 26.1269 90.1259 25.9936 90.6592 25.9936H99.2992C99.8192 25.9936 100.293 26.1269 100.719 26.3936C101.159 26.6469 101.513 26.9936 101.779 27.4336C102.046 27.8602 102.179 28.3402 102.179 28.8736V37.5136C102.179 38.0469 102.046 38.5336 101.779 38.9736C101.513 39.4002 101.159 39.7469 100.719 40.0136C100.293 40.2669 99.8192 40.3936 99.2992 40.3936H90.6592ZM90.7792 37.4936H99.1392C99.1792 37.4936 99.2059 37.4869 99.2192 37.4736C99.2459 37.4469 99.2592 37.4136 99.2592 37.3736V29.0136C99.2592 28.9736 99.2459 28.9469 99.2192 28.9336C99.2059 28.9069 99.1792 28.8936 99.1392 28.8936H90.7792C90.7392 28.8936 90.7059 28.9069 90.6792 28.9336C90.6659 28.9469 90.6592 28.9736 90.6592 29.0136V37.3736C90.6592 37.4136 90.6659 37.4469 90.6792 37.4736C90.7059 37.4869 90.7392 37.4936 90.7792 37.4936ZM105.022 40.3936V25.9936H116.522C117.055 25.9936 117.535 26.1269 117.962 26.3936C118.402 26.6469 118.755 26.9936 119.022 27.4336C119.288 27.8602 119.422 28.3402 119.422 28.8736V37.5136C119.422 38.0469 119.288 38.5336 119.022 38.9736C118.755 39.4002 118.402 39.7469 117.962 40.0136C117.535 40.2669 117.055 40.3936 116.522 40.3936H105.022ZM108.002 37.4936H116.382C116.422 37.4936 116.448 37.4869 116.462 37.4736C116.488 37.4469 116.502 37.4136 116.502 37.3736V29.0136C116.502 28.9736 116.488 28.9469 116.462 28.9336C116.448 28.9069 116.422 28.8936 116.382 28.8936H108.002C107.975 28.8936 107.948 28.9069 107.922 28.9336C107.895 28.9469 107.882 28.9736 107.882 29.0136V37.3736C107.882 37.4136 107.895 37.4469 107.922 37.4736C107.948 37.4869 107.975 37.4936 108.002 37.4936ZM122.301 40.3936V25.9936H135.581V28.8936H125.221V31.7336H133.561V34.6536H125.221V37.4936H135.581V40.3936H122.301ZM138.234 35.9136V33.0536H146.494V35.9136H138.234ZM152.666 40.3936V30.2336L151.786 31.3336H148.006L152.486 25.9936H155.526V40.3936H152.666ZM157.538 40.3936V34.8336C157.538 34.3136 157.665 33.8402 157.918 33.4136C158.185 32.9869 158.532 32.6469 158.958 32.3936C159.385 32.1402 159.858 32.0136 160.378 32.0136H168.778C168.805 32.0136 168.832 32.0002 168.858 31.9736C168.885 31.9469 168.898 31.9202 168.898 31.8936V28.9536C168.898 28.9269 168.885 28.9002 168.858 28.8736C168.832 28.8469 168.805 28.8336 168.778 28.8336H160.498C160.472 28.8336 160.445 28.8469 160.418 28.8736C160.392 28.9002 160.378 28.9269 160.378 28.9536V30.0336H157.538V28.8136C157.538 28.2936 157.665 27.8202 157.918 27.3936C158.185 26.9669 158.532 26.6269 158.958 26.3736C159.385 26.1202 159.858 25.9936 160.378 25.9936H168.898C169.405 25.9936 169.872 26.1202 170.298 26.3736C170.738 26.6269 171.085 26.9669 171.338 27.3936C171.605 27.8202 171.738 28.2936 171.738 28.8136V32.0336C171.738 32.5536 171.605 33.0269 171.338 33.4536C171.085 33.8802 170.738 34.2269 170.298 34.4936C169.872 34.7469 169.405 34.8736 168.898 34.8736H160.498C160.472 34.8736 160.445 34.8869 160.418 34.9136C160.392 34.9402 160.378 34.9669 160.378 34.9936V37.4336C160.378 37.4602 160.392 37.4869 160.418 37.5136C160.445 37.5402 160.472 37.5536 160.498 37.5536H171.738V40.3936H157.538Z" fill="white"/>
</svg>
